<?xml version="1.0" standalone="no"?>
<!DOCTYPE svg PUBLIC "-//W3C//DTD SVG 20010904//EN"
 "http://www.w3.org/TR/2001/REC-SVG-20010904/DTD/svg10.dtd">
<svg version="1.0" xmlns="http://www.w3.org/2000/svg"
 width="1000.000000pt" height="1000.000000pt" viewBox="0 0 1000.000000 1000.000000"
 preserveAspectRatio="xMidYMid meet">

<g transform="translate(0.000000,1000.000000) scale(0.100000,-0.100000)"
fill="#000000" stroke="none">
<path d="M0 5000 l0 -5000 5000 0 5000 0 0 5000 0 5000 -5000 0 -5000 0 0
-5000z m4131 670 c24 -13 25 -59 3 -101 -8 -17 -62 -97 -120 -179 -95 -135
-103 -151 -94 -175 14 -38 12 -71 -6 -89 -8 -9 -19 -16 -23 -16 -19 0 -101 74
-101 91 0 25 32 25 55 -1 26 -29 31 -25 27 18 -3 34 6 51 98 182 91 130 140
208 140 225 0 17 -42 -21 -80 -72 -24 -32 -48 -61 -54 -65 -6 -4 -60 -8 -121
-9 l-110 -1 82 -23 c94 -27 103 -31 103 -50 0 -26 -17 -25 -131 5 -129 33
-161 56 -136 94 13 19 26 21 149 26 l135 5 47 57 c69 85 95 100 137 78z m-27
-262 c7 -18 28 -63 45 -100 43 -92 39 -148 -10 -148 -18 0 -141 152 -143 178
0 9 6 18 15 20 11 2 34 -19 64 -57 25 -34 48 -61 50 -61 2 0 -14 39 -36 86
-22 48 -38 93 -35 100 9 25 35 15 50 -18z m-1293 -87 l24 -19 3 -271 3 -271
55 0 c96 0 145 -38 158 -122 7 -46 -1 -68 -25 -68 -15 0 -19 7 -19 31 0 51
-28 98 -64 107 -38 10 -602 8 -634 -2 -50 -17 -52 -33 -52 -481 0 -468 0 -466
68 -484 20 -5 125 -10 232 -10 107 0 205 0 218 0 15 -1 22 -7 22 -21 0 -19 -7
-20 -140 -20 -136 0 -141 -1 -149 -22 -23 -61 -101 -80 -147 -37 -13 12 -24
29 -24 36 0 8 -15 20 -34 28 -46 20 -86 69 -86 108 0 18 0 218 0 446 0 398 0
414 20 446 25 41 74 65 134 65 l46 0 0 265 0 266 25 24 c24 24 28 25 183 25
142 0 162 -2 183 -19z m953 -246 c-43 -55 -158 -141 -238 -179 -107 -51 -191
-68 -341 -70 -128 -1 -130 -1 -133 22 -3 22 -1 22 100 22 243 1 430 76 572
230 34 37 40 40 53 27 14 -13 12 -19 -13 -52z m2014 -437 l-3 -253 -47 -3
c-38 -2 -48 0 -48 12 0 20 -1 20 -36 1 -45 -23 -134 -19 -175 8 -94 63 -115
194 -46 291 42 60 149 83 218 48 l35 -18 1 25 c0 15 1 52 2 84 l1 57 50 0 50
0 -2 -252z m1490 170 c3 -47 4 -48 38 -48 34 0 34 0 34 -45 0 -45 0 -45 -35
-45 l-36 0 3 -97 3 -98 33 -10 c31 -9 33 -12 30 -50 l-3 -40 -58 2 c-103 5
-115 24 -114 188 0 95 -1 100 -21 103 -19 3 -22 10 -22 48 0 37 3 44 20 44 20
0 25 14 21 55 -3 34 5 40 55 40 l49 0 3 -47z m-2105 -64 c21 -12 32 -13 35 -5
2 6 26 11 55 11 l52 0 -2 -182 -3 -183 -50 -3 c-40 -2 -50 0 -50 13 0 14 -3
14 -31 -1 -46 -23 -121 -20 -171 8 -129 72 -111 298 27 346 45 16 102 14 138
-4z m1332 5 c75 -21 135 -106 135 -191 l0 -28 -145 0 c-82 0 -145 -4 -145 -9
0 -5 12 -19 26 -30 32 -25 101 -28 130 -6 26 20 43 19 82 -5 31 -19 32 -21 15
-39 -98 -101 -277 -79 -339 41 -17 34 -20 120 -6 158 15 37 74 89 118 105 48
17 77 18 129 4z m495 -9 c43 -23 54 -66 58 -218 l4 -143 -54 3 -53 3 -3 125
c-2 98 -6 128 -19 142 -21 24 -68 23 -93 -2 -18 -18 -20 -33 -20 -146 l0 -125
-52 3 -53 3 -3 183 -2 182 55 0 c30 0 55 -4 55 -10 0 -5 15 -2 33 6 35 16 112
13 147 -6z m1087 -32 c2 -45 1 -46 -32 -52 -19 -4 -47 -17 -62 -30 -26 -23
-28 -29 -31 -135 l-4 -111 -49 0 -49 0 0 185 0 185 50 0 c45 0 50 -2 50 -22 0
-20 1 -20 19 -4 21 19 67 36 91 33 10 -2 15 -16 17 -49z m286 33 c29 -15 37
-16 37 -5 0 10 14 14 50 14 l50 0 0 -185 0 -185 -50 0 c-38 0 -50 4 -50 15 0
14 -3 14 -30 0 -44 -23 -127 -19 -175 8 -78 43 -111 173 -65 261 42 84 150
119 233 77z m-2383 -78 l40 -87 42 87 41 87 54 0 c32 0 53 -4 53 -11 0 -6 -42
-92 -92 -190 -82 -158 -95 -177 -106 -161 -14 18 -182 348 -182 357 0 3 25 5
55 5 l55 0 40 -87z m1540 -36 c0 -133 6 -151 52 -162 21 -5 33 -1 52 19 25 24
26 30 26 146 l0 120 55 0 55 0 0 -185 0 -185 -54 0 c-32 0 -56 5 -58 11 -3 9
-10 9 -27 -1 -34 -18 -116 -16 -146 4 -52 34 -60 59 -63 213 l-4 143 56 0 56
0 0 -123z m-3742 57 c33 -23 52 -67 52 -123 l0 -49 134 -4 c150 -3 171 -11
211 -79 19 -32 20 -56 23 -334 4 -347 -1 -388 -54 -434 -19 -17 -47 -34 -62
-38 -15 -5 -268 -8 -562 -8 -517 0 -536 1 -569 20 -19 11 -43 33 -55 48 -20
28 -21 38 -21 380 l0 352 23 33 c37 51 76 62 223 62 l129 0 0 63 c0 65 14 93
55 115 13 7 98 12 235 12 180 0 219 -3 238 -16z m-950 -156 l-3 -23 -225 0
-225 0 -3 23 -3 22 231 0 231 0 -3 -22z m-48 -623 c25 -31 0 -35 -206 -35
-191 0 -204 1 -204 18 0 10 3 22 7 25 3 4 93 7 198 7 156 0 195 -3 205 -15z"/>
<path d="M2470 5255 l0 -35 156 0 155 0 -3 33 -3 32 -152 3 -153 3 0 -36z"/>
<path d="M2474 4965 c0 -115 2 -161 3 -102 2 59 2 154 0 210 -1 56 -3 8 -3
-108z"/>
<path d="M2530 4965 l0 -205 100 0 100 0 0 205 0 205 -100 0 -100 0 0 -205z"/>
<path d="M2394 3665 c25 -19 40 -19 56 0 11 13 6 15 -31 15 -41 -1 -43 -2 -25
-15z"/>
<path d="M5528 4655 c-52 -29 -55 -135 -5 -170 54 -38 139 -5 151 58 17 91
-67 155 -146 112z"/>
<path d="M5061 4656 c-48 -27 -63 -84 -36 -136 19 -36 43 -50 88 -50 42 0 74
25 85 65 25 89 -60 164 -137 121z"/>
<path d="M6393 4656 c-17 -8 -36 -24 -43 -35 -10 -21 -9 -21 80 -21 85 0 90 1
81 18 -23 44 -70 59 -118 38z"/>
<path d="M8264 4661 c-30 -13 -54 -55 -54 -96 0 -83 105 -127 164 -69 35 35
36 101 4 139 -25 28 -79 40 -114 26z"/>
<path d="M3316 4634 c-22 -21 -23 -124 -1 -124 10 0 15 10 15 34 0 19 9 45 21
60 l20 26 169 0 c191 0 205 -5 214 -75 3 -22 5 -41 6 -42 0 -2 5 -3 10 -3 6 0
10 24 10 53 0 87 -1 87 -243 87 -174 0 -208 -2 -221 -16z"/>
<path d="M3378 4557 c-9 -46 -5 -47 163 -47 l159 0 0 35 0 35 -159 0 c-157 0
-159 0 -163 -23z"/>
<path d="M2949 4431 l-29 -29 0 -331 c0 -221 4 -338 11 -354 24 -52 21 -52
599 -52 439 0 542 3 563 14 52 28 57 63 57 392 0 327 -4 354 -56 378 -18 8
-184 11 -570 11 l-546 0 -29 -29z m159 -355 c2 -368 0 -393 -35 -364 -10 8
-13 88 -13 363 0 193 3 355 7 359 4 4 14 5 23 4 13 -3 15 -47 18 -362z m880 5
c2 -362 -1 -398 -34 -370 -11 9 -14 78 -14 364 0 193 3 355 7 359 4 4 14 5 23
4 13 -3 15 -47 18 -357z m-123 169 l0 -95 -165 0 -165 0 -3 83 c-2 54 1 89 9
98 10 12 42 14 168 12 l156 -3 0 -95z m-210 -180 l0 -55 -54 -3 c-60 -4 -71 4
-71 55 0 58 7 64 69 61 l56 -3 0 -55z m210 -20 l0 -75 -80 0 -80 0 -3 64 c-4
93 -5 92 85 89 l78 -3 0 -75z m0 -160 l0 -55 -48 -3 c-27 -2 -55 2 -63 9 -14
12 -20 90 -7 103 4 4 32 6 63 4 l55 -3 0 -55z"/>
<path d="M3590 4250 c0 -27 4 -50 8 -50 4 0 26 18 47 40 21 22 45 40 52 40 25
0 26 -30 3 -56 -34 -36 -11 -29 27 8 26 25 36 29 45 20 10 -10 10 -17 0 -32
-11 -19 -10 -20 23 -20 l35 0 0 50 0 50 -120 0 -120 0 0 -50z"/>
<path d="M3580 4065 c0 -8 7 -15 15 -15 8 0 15 7 15 15 0 8 -7 15 -15 15 -8 0
-15 -7 -15 -15z"/>
<path d="M3750 4050 c0 -29 4 -32 35 -32 31 0 35 3 35 32 0 28 -3 30 -35 30
-32 0 -35 -2 -35 -30z"/>
<path d="M3790 3890 c0 -5 7 -10 15 -10 8 0 15 5 15 10 0 6 -7 10 -15 10 -8 0
-15 -4 -15 -10z"/>
</g>
</svg>
